<?xml version="1.0" encoding="UTF-8" standalone="no"?>
<svg width="203px" height="40px" viewBox="0 0 203 40" version="1.1" xmlns="http://www.w3.org/2000/svg" xmlns:xlink="http://www.w3.org/1999/xlink" xmlns:sketch="http://www.bohemiancoding.com/sketch/ns">
    <title>site-logo</title>
    <description>Created with Sketch (http://www.bohemiancoding.com/sketch)</description>
    <defs></defs>
    <g id="Page 1" stroke="none" stroke-width="1" fill="none" fill-rule="evenodd">
        <g id="site-logo" transform="translate(0.000000, -1.000000)" fill="#1F4B24">
            <path d="M59.802,15.347 L59.322,17.597 C60.192,16.847 61.332,16.307 62.832,16.307 C64.872,16.307 66.532,17.507 66.532,21.007 C66.532,25.057 64.972,31.597 59.152,31.597 C57.652,31.597 56.932,31.087 56.602,30.517 L55.042,37.837 L50.512,38.916 L55.522,15.307 L59.802,15.307 L59.802,15.347 Z M62.382,21 C62.382,18.69 61.422,18.51 60.882,18.51 C60.222,18.51 59.382,19.02 58.812,19.98 L57.042,28.38 C57.162,28.68 57.542,29.08 58.142,29.08 C61.333,29 62.4,23.8 62.4,20.957 L62.382,21 Z M62.382,21" id="Shape"></path>
            <path d="M81.642,16.457 L79.482,26.656 C79.392,27.047 79.362,27.346 79.362,27.617 C79.362,28.417 79.762,28.917 80.562,28.917 C81.732,28.917 82.542,27.598 82.992,26.098 L84.252,26.098 C82.543,30.988 79.842,31.648 78.223,31.648 C76.543,31.648 75.463,30.688 75.283,28.888 C74.353,30.268 72.943,31.648 70.813,31.688 C68.773,31.688 66.823,30.428 66.823,26.858 C66.823,22.808 69.313,16.358 74.533,16.358 C76.243,16.358 76.933,17.058 76.933,17.888 L76.933,18.098 L77.263,16.508 L81.642,16.508 L81.642,16.457 Z M71.292,26.4 C71.292,28.7 72.292,28.7 72.792,28.74 C73.662,28.74 74.922,27.84 75.282,26.1 L76.722,19.32 C76.722,18.96 76.452,18.18 75.492,18.18 C72.942,18.2 71.3,23.6 71.3,26.387 L71.292,26.4 Z M71.292,26.4" id="Shape"></path>
            <path d="M90.582,19.067 C89.502,19.067 88.691,20.327 88.242,21.827 L86.202,31.457 L81.882,31.457 L85.062,16.457 L89.382,16.457 L89.052,18.057 C90.312,16.617 91.632,16.377 92.562,16.377 C94.482,16.377 95.862,17.377 95.862,19.767 C95.862,22.196 94.422,25.827 94.422,27.507 C94.422,28.307 94.722,28.807 95.622,28.807 C96.942,28.807 97.482,27.727 98.142,26.167 L99.403,26.167 C97.722,31.086 95.413,31.717 93.823,31.717 C91.213,31.717 90.283,30.037 90.283,28.326 C90.283,26.287 91.634,22.597 91.634,20.677 C91.662,19.6 91.3,19.1 90.6,19.067 L90.582,19.067 Z M90.582,19.067" id="Shape"></path>
            <path d="M113.831,10.458 L110.382,26.657 C110.291,27.048 110.262,27.347 110.262,27.618 C110.262,28.418 110.662,28.718 111.462,28.718 C112.632,28.718 113.442,27.578 113.892,26.078 L115.153,26.078 C113.443,30.968 110.743,31.448 109.123,31.448 C107.503,31.448 106.423,30.548 106.184,28.868 C105.284,30.248 103.873,31.628 101.744,31.668 C99.704,31.668 97.755,30.408 97.755,26.838 C97.755,22.788 100.244,16.338 105.464,16.338 C107.174,16.338 107.864,17.038 107.864,17.868 L107.864,17.988 L109.334,11.089 L113.831,10.458 L113.831,10.458 Z M106.182,26.087 L107.652,19.217 C107.592,18.857 107.322,18.167 106.423,18.167 C103.873,18.167 102.223,23.566 102.223,26.387 C102.223,28.687 103.223,28.687 103.723,28.687 C104.563,28.687 105.793,27.847 106.183,26.197 L106.183,26.087 L106.182,26.087 Z M106.182,26.087" id="Shape"></path>
            <path d="M128.321,16.457 L126.161,26.656 C126.071,27.047 126.041,27.346 126.041,27.617 C126.041,28.417 126.441,28.917 127.241,28.917 C128.411,28.917 129.22,27.598 129.671,26.098 L130.931,26.098 C129.221,30.988 126.522,31.648 124.902,31.648 C123.222,31.648 122.142,30.688 121.962,28.888 C121.032,30.268 119.622,31.648 117.492,31.648 C115.452,31.648 113.503,30.388 113.503,26.818 C113.503,22.768 115.992,16.318 121.212,16.318 C122.922,16.318 123.612,17.018 123.612,17.848 L123.612,18.058 L123.942,16.468 L128.321,16.468 L128.321,16.457 Z M117.972,26.387 C117.972,28.687 118.972,28.687 119.472,28.727 C120.342,28.727 121.602,27.827 121.962,26.087 L123.401,19.307 C123.401,18.947 123.131,18.167 122.172,18.167 C119.622,18.2 118,23.6 118,26.387 L117.972,26.387 Z M117.972,26.387" id="Shape"></path>
            <path d="M144.671,19.067 C143.591,19.067 142.78,20.327 142.331,21.827 L140.291,31.457 L135.971,31.457 L138.161,21.107 C138.221,20.867 138.251,20.627 138.251,20.357 C138.251,19.697 138.011,19.037 137.351,19.037 C136.181,19.037 135.372,20.327 134.921,21.827 L132.881,31.457 L128.562,31.457 L131.742,16.457 L136.061,16.457 L135.731,18.057 C136.992,16.617 138.341,16.347 139.391,16.347 C140.981,16.347 142.191,17.047 142.491,18.927 C143.931,16.707 145.552,16.377 146.661,16.377 C148.581,16.377 149.961,17.377 149.961,19.777 C149.961,22.206 148.521,25.837 148.521,27.517 C148.521,28.317 148.821,28.817 149.721,28.777 C151.041,28.777 151.581,27.697 152.241,26.137 L153.502,26.137 C151.821,31.056 149.512,31.687 147.922,31.637 C145.312,31.637 144.382,29.957 144.382,28.246 C144.382,26.207 145.733,22.517 145.733,20.597 C145.751,19.6 145.4,19.1 144.7,19.067 L144.671,19.067 Z M144.671,19.067" id="Shape"></path>
            <path d="M163.9,20.987 C164.02,21.087 164.1,21.087 164.2,21.047 C165.58,21.047 167.53,20.147 168.819,19.247 L169.09,20.047 C167.95,21.277 165.97,22.177 163.78,22.537 C163.3,28.087 160.3,31.566 156.61,31.566 C153.82,31.566 151.81,30.247 151.81,26.827 C151.81,23.377 153.85,16.177 160.03,16.177 C162.641,16.2 163.9,17.8 163.9,20.987 L163.9,20.987 Z M161.32,22.637 C160.69,22.487 160.51,21.977 160.51,21.377 C160.51,20.537 160.9,19.997 161.44,19.757 C161.38,18.497 161.08,18.017 160.3,18.017 C158.17,18.017 156.31,23.507 156.31,26.447 C156.31,28.447 156.71,28.847 157.81,28.847 C159.311,28.9 160.8,26.2 161.3,22.637 L161.32,22.637 Z M161.32,22.637" id="Shape"></path>
            <path d="M172.99,19.067 C171.91,19.067 171.1,20.327 170.65,21.827 L168.61,31.457 L164.291,31.457 L167.471,16.457 L171.79,16.457 L171.46,18.057 C172.721,16.617 174.04,16.377 174.971,16.377 C176.891,16.377 178.271,17.377 178.271,19.767 C178.271,22.196 176.832,25.827 176.832,27.507 C176.832,28.307 177.132,28.807 178.032,28.807 C179.351,28.807 179.891,27.727 180.552,26.167 L181.812,26.167 C180.132,31.086 177.823,31.717 176.232,31.717 C173.623,31.717 172.693,30.037 172.693,28.326 C172.693,26.287 174.043,22.597 174.043,20.677 C174.07,19.6 173.7,19.1 173,19.067 L172.99,19.067 Z M172.99,19.067" id="Shape"></path>
            <path d="M186.939,16.457 L184.78,26.656 C184.689,27.047 184.66,27.346 184.66,27.617 C184.66,28.417 185.06,28.717 185.86,28.717 C187.03,28.717 188.11,27.577 188.56,26.077 L189.82,26.077 C188.11,30.967 185.14,31.627 183.52,31.627 C181.72,31.627 180.31,30.547 180.31,28.027 C180.31,27.457 180.4,26.797 180.55,26.077 L182.59,16.447 L186.939,16.447 L186.939,16.457 Z M185.59,10.067 C186.91,10.067 187.99,11.167 187.99,12.467 C187.99,13.767 186.91,14.837 185.59,14.837 C184.27,14.837 183.22,13.787 183.22,12.467 C183.22,11.147 184.27,10.1 185.6,10.067 L185.59,10.067 Z M185.59,10.067" id="Shape"></path>
            <path d="M202.989,16.457 L200.829,26.656 C200.739,27.047 200.709,27.346 200.709,27.617 C200.709,28.417 201.109,28.717 201.909,28.717 C202.179,28.717 202.359,28.688 202.569,28.597 C201.758,30.698 201.189,31.627 199.569,31.627 C197.949,31.627 196.869,30.576 196.629,28.837 C195.73,30.217 194.289,31.627 192.159,31.637 C190.119,31.637 188.17,30.377 188.17,26.807 C188.17,22.757 190.659,16.307 195.879,16.307 C197.589,16.307 198.279,17.007 198.279,17.837 L198.279,18.047 L198.609,16.457 L202.989,16.457 L202.989,16.457 Z M192.64,26.387 C192.64,28.687 193.64,28.687 194.14,28.727 C195.01,28.727 196.27,27.827 196.63,26.087 L198.069,19.307 C198.069,18.947 197.799,18.167 196.84,18.167 C194.29,18.2 192.6,23.6 192.6,26.387 L192.64,26.387 Z M192.64,26.387" id="Shape"></path>
            <path d="M39.6968889,16.8535507 C39.4151111,14.5448511 38.9057778,12.5442741 38.1528889,10.7834466 C39.2275556,9.74985957 39.8968889,8.29804269 39.8968889,6.69172052 C39.8977778,3.55810476 37.3546667,1.01231943 34.2124444,1.01231943 C32.5937778,1.01231943 31.1315556,1.68894602 30.096,2.77403484 C28.9057778,2.26789685 27.6044444,1.86742626 26.2115556,1.57972677 C24.3448889,1.19346356 22.256,0.998112052 19.9982222,0.999000014 C17.7413333,0.999000014 15.6524444,1.19346356 13.7884444,1.57706288 C12.3928889,1.86387441 11.0897778,2.26345704 9.89866667,2.7314127 C8.864,1.71025709 7.37777778,0.999887975 5.77777778,1.01231943 C2.63822222,1.01231943 0.0924444444,3.55455291 0.0924444444,6.69172052 C0.0924444444,8.29005103 0.714666667,9.71078927 1.87022222,10.7763429 C1.12,12.5336185 0.613333333,14.5306437 0.332444444,16.8331276 C0,19.2918927 0,21.7781846 0,23.7281479 C0,25.6816629 0,27.8127703 0.355555556,29.8746166 C0.749333333,32.2721124 1.6,34.2256275 2.93333333,35.823958 C3.68888889,36.7119194 4.62222222,37.5110846 5.68888889,38.1601844 C6.752,38.7817574 8,39.3145342 9.42222222,39.755851 C12.1902222,40.5550163 15.6444444,40.998997 20.0888889,40.998997 C24.4871111,40.998997 27.9724444,40.5985264 30.7431111,39.7753862 C32.144,39.3598203 33.3937778,38.8208277 34.4577778,38.1743918 C35.5333333,37.5217402 36.4604444,36.7341184 37.216,35.8337256 C38.5342222,34.2620339 39.3671111,32.3209503 39.7608889,29.8977036 C40,27.8163221 40,25.6852148 40,23.7308117 C39.9982222,21.7781846 40,19.2918927 39.7333333,16.8535507 L39.6968889,16.8535507 L39.6968889,16.8535507 Z M19.9991111,38.1042429 C3.02222222,38.1042429 2.85422222,31.8876251 2.85422222,23.7290358 C2.85422222,20.137232 2.872,15.8554821 4.34577778,12.1873136 C5.512,9.28545576 7.59022222,6.7680852 11.2933333,5.28074986 C13.5422222,4.3759172 16.3911111,3.85290794 19.9982222,3.85290794 C23.6053333,3.85290794 26.4871111,4.38568478 28.7093333,5.28518967 C31.6524444,6.43953948 33.5982222,8.30425841 34.8426667,10.4353658 C33.7022222,9.88838154 32.424,9.58203486 31.0737778,9.58203486 C26.2568889,9.58203486 22.352,13.4828493 22.352,18.2947121 C22.352,23.0897036 26.2631111,26.9967338 31.0631111,26.9967338 C33.4382222,26.9967338 35.5911111,26.048391 37.1644444,24.5095539 C37.112,32.2561291 36.3555556,38.1166743 20,38.1042429 L19.9991111,38.1042429 L19.9991111,38.1042429 Z M31.3688889,20.8902232 C31.3688889,22.4583631 30.096,23.7299238 28.5262222,23.7290358 C26.9564444,23.7290358 25.6844444,22.4574751 25.6844444,20.8893353 C25.6844444,19.3211954 26.9573333,18.0496347 28.5262222,18.0496347 C30.0977778,18.0496347 31.3706667,19.2927807 31.3706667,20.8902232 L31.3688889,20.8902232 L31.3688889,20.8902232 Z M19.9991111,23.7281479 C21.5688889,23.7281479 22.8435556,24.3497208 22.8435556,25.150662 C22.8435556,25.9356199 21.5715556,26.5722882 20.0017778,26.5714002 C18.432,26.5705123 17.16,25.9347319 17.16,25.1497741 C17.1564444,24.3532727 18.4,23.7316997 20,23.7281479 L19.9991111,23.7281479 Z M11.4728889,18.0505227 C13.0426667,18.0505227 14.3173333,19.2936686 14.3173333,20.8919992 C14.3173333,22.4903297 13.0453333,23.7308117 11.4755556,23.7308117 C9.90577778,23.7308117 8.63377778,22.459251 8.63377778,20.8919992 C8.63377778,19.3247473 9.90311111,18.0487468 11.4666667,18.0505227 L11.4728889,18.0505227 Z M11.4728889,18.0505227" id="Shape"></path>
        </g>
    </g>
</svg>