<svg width="206" height="45" viewBox="0 0 206 45" xmlns="http://www.w3.org/2000/svg"><path d="M62.802 17.347l-.48 2.25c.87-.75 2.01-1.29 3.51-1.29 2.04 0 3.7 1.2 3.7 4.7 0 4.05-1.56 10.59-7.38 10.59-1.5 0-2.22-.51-2.55-1.08l-1.56 7.32-4.53 1.079 5.01-23.609h4.28zm2.58 5.653c0-2.31-.96-2.49-1.5-2.49-.66 0-1.5.51-2.07 1.47l-1.77 8.4c.12.3.5.7 1.1.7 3.191-.08 4.258-5.28 4.258-8.123zM84.642 18.457l-2.16 10.199c-.09.391-.12.69-.12.961 0 .8.4 1.3 1.2 1.3 1.17 0 1.98-1.319 2.43-2.819h1.26c-1.709 4.89-4.41 5.55-6.029 5.55-1.68 0-2.76-.96-2.94-2.76-.93 1.38-2.34 2.76-4.47 2.8-2.04 0-3.99-1.26-3.99-4.83 0-4.05 2.49-10.5 7.71-10.5 1.71 0 2.4.7 2.4 1.53v.21l.33-1.59h4.379zm-10.35 9.943c0 2.3 1 2.3 1.5 2.34.87 0 2.13-.9 2.49-2.64l1.44-6.78c0-.36-.27-1.14-1.23-1.14-2.55.02-4.192 5.42-4.192 8.207zM93.582 21.067c-1.08 0-1.891 1.26-2.34 2.76l-2.04 9.63h-4.32l3.18-15h4.32l-.33 1.6c1.26-1.44 2.58-1.68 3.51-1.68 1.92 0 3.3 1 3.3 3.39 0 2.429-1.44 6.06-1.44 7.74 0 .8.3 1.3 1.2 1.3 1.32 0 1.86-1.08 2.52-2.64h1.261c-1.681 4.919-3.99 5.55-5.58 5.55-2.61 0-3.54-1.68-3.54-3.391 0-2.039 1.351-5.729 1.351-7.649.028-1.077-.334-1.577-1.034-1.61zM116.831 12.458l-3.449 16.199c-.091.391-.12.69-.12.961 0 .8.4 1.1 1.2 1.1 1.17 0 1.98-1.14 2.43-2.64h1.261c-1.71 4.89-4.41 5.37-6.03 5.37s-2.7-.9-2.939-2.58c-.9 1.38-2.311 2.76-4.44 2.8-2.04 0-3.989-1.26-3.989-4.83 0-4.05 2.489-10.5 7.709-10.5 1.71 0 2.4.7 2.4 1.53v.12l1.47-6.899 4.497-.631zm-7.649 15.629l1.47-6.87c-.06-.36-.33-1.05-1.229-1.05-2.55 0-4.2 5.399-4.2 8.22 0 2.3 1 2.3 1.5 2.3.84 0 2.07-.84 2.46-2.49v-.11zM131.321 18.457l-2.16 10.199c-.09.391-.12.69-.12.961 0 .8.4 1.3 1.2 1.3 1.17 0 1.979-1.319 2.43-2.819h1.26c-1.71 4.89-4.409 5.55-6.029 5.55-1.68 0-2.76-.96-2.94-2.76-.93 1.38-2.34 2.76-4.47 2.76-2.04 0-3.989-1.26-3.989-4.83 0-4.05 2.489-10.5 7.709-10.5 1.71 0 2.4.7 2.4 1.53v.21l.33-1.59h4.379zm-10.349 9.93c0 2.3 1 2.3 1.5 2.34.87 0 2.13-.9 2.49-2.64l1.439-6.78c0-.36-.27-1.14-1.229-1.14-2.55.033-4.172 5.433-4.172 8.22zM147.671 21.067c-1.08 0-1.891 1.26-2.34 2.76l-2.04 9.63h-4.32l2.19-10.35c.06-.24.09-.48.09-.75 0-.66-.24-1.32-.9-1.32-1.17 0-1.979 1.29-2.43 2.79l-2.04 9.63h-4.319l3.18-15h4.319l-.33 1.6c1.261-1.44 2.61-1.71 3.66-1.71 1.59 0 2.8.7 3.1 2.58 1.44-2.22 3.061-2.55 4.17-2.55 1.92 0 3.3 1 3.3 3.4 0 2.429-1.44 6.06-1.44 7.74 0 .8.3 1.3 1.2 1.26 1.32 0 1.86-1.08 2.52-2.64h1.261c-1.681 4.919-3.99 5.55-5.58 5.5-2.61 0-3.54-1.68-3.54-3.391 0-2.039 1.351-5.729 1.351-7.649.018-.997-.333-1.497-1.033-1.53zM166.9 22.987c.12.1.2.1.3.06 1.38 0 3.33-.9 4.619-1.8l.271.8c-1.14 1.23-3.12 2.13-5.31 2.49-.48 5.55-3.48 9.029-7.17 9.029-2.79 0-4.8-1.319-4.8-4.739 0-3.45 2.04-10.65 8.22-10.65 2.611.023 3.87 1.623 3.87 4.81zm-2.58 1.65c-.63-.15-.81-.66-.81-1.26 0-.84.39-1.38.93-1.62-.06-1.26-.36-1.74-1.14-1.74-2.13 0-3.99 5.49-3.99 8.43 0 2 .4 2.4 1.5 2.4 1.501.053 2.99-2.647 3.49-6.21zM175.99 21.067c-1.08 0-1.89 1.26-2.34 2.76l-2.04 9.63h-4.319l3.18-15h4.319l-.33 1.6c1.261-1.44 2.58-1.68 3.511-1.68 1.92 0 3.3 1 3.3 3.39 0 2.429-1.439 6.06-1.439 7.74 0 .8.3 1.3 1.2 1.3 1.319 0 1.859-1.08 2.52-2.64h1.26c-1.68 4.919-3.989 5.55-5.58 5.55-2.609 0-3.539-1.68-3.539-3.391 0-2.039 1.35-5.729 1.35-7.649.027-1.077-.343-1.577-1.043-1.61zM189.939 18.457l-2.159 10.199c-.091.391-.12.69-.12.961 0 .8.4 1.1 1.2 1.1 1.17 0 2.25-1.14 2.7-2.64h1.26c-1.71 4.89-4.68 5.55-6.3 5.55-1.8 0-3.21-1.08-3.21-3.6 0-.57.09-1.23.24-1.95l2.04-9.63h4.349zm-1.349-6.39c1.32 0 2.4 1.1 2.4 2.4s-1.08 2.37-2.4 2.37-2.37-1.05-2.37-2.37 1.05-2.367 2.38-2.4zM205.989 18.457l-2.16 10.199c-.09.391-.12.69-.12.961 0 .8.4 1.1 1.2 1.1.27 0 .45-.029.66-.12-.811 2.101-1.38 3.03-3 3.03s-2.7-1.051-2.94-2.79c-.899 1.38-2.34 2.79-4.47 2.8-2.04 0-3.989-1.26-3.989-4.83 0-4.05 2.489-10.5 7.709-10.5 1.71 0 2.4.7 2.4 1.53v.21l.33-1.59h4.38zm-10.349 9.93c0 2.3 1 2.3 1.5 2.34.87 0 2.13-.9 2.49-2.64l1.439-6.78c0-.36-.27-1.14-1.229-1.14-2.55.033-4.24 5.433-4.24 8.22zM44.659 17.854c-.317-2.6-.89-4.853-1.737-6.836 1.209-1.164 1.962-2.799 1.962-4.608.001-3.529-2.86-6.396-6.395-6.396-1.821 0-3.466.762-4.631 1.984-1.339-.57-2.803-1.021-4.37-1.345-2.1-.435-4.45-.655-6.99-.654-2.539 0-4.889.219-6.986.651-1.57.323-3.036.773-4.376 1.3-1.164-1.15-2.836-1.95-4.636-1.936-3.532 0-6.396 2.863-6.396 6.396 0 1.8.7 3.4 2 4.6-.844 1.979-1.414 4.228-1.73 6.821-.374 2.769-.374 5.569-.374 7.765 0 2.2 0 4.6.4 6.922.443 2.7 1.4 4.9 2.9 6.7.85 1 1.9 1.9 3.1 2.631 1.196.7 2.6 1.3 4.2 1.797 3.114.9 7 1.4 12 1.4 4.948 0 8.869-.451 11.986-1.378 1.576-.468 2.982-1.075 4.179-1.803 1.21-.735 2.253-1.622 3.103-2.636 1.483-1.77 2.42-3.956 2.863-6.685.269-2.344.269-4.744.269-6.945-.002-2.199 0-4.999-.3-7.745h-.041zm-22.16 23.932c-19.099 0-19.288-7.001-19.288-16.189 0-4.045.02-8.867 1.678-12.998 1.312-3.268 3.65-6.103 7.816-7.778 2.53-1.019 5.735-1.608 9.793-1.608 4.058 0 7.3.6 9.8 1.613 3.311 1.3 5.5 3.4 6.9 5.8-1.283-.616-2.721-.961-4.24-.961-5.419 0-9.812 4.393-9.812 9.812 0 5.4 4.4 9.8 9.8 9.8 2.672 0 5.094-1.068 6.864-2.801-.059 8.724-.91 15.324-19.31 15.31h-.001zm12.791-19.386c0 1.766-1.432 3.198-3.198 3.197-1.766 0-3.197-1.432-3.197-3.198s1.432-3.198 3.197-3.198c1.768 0 3.2 1.4 3.2 3.199h-.002zm-12.791 3.196c1.766 0 3.2.7 3.2 1.602 0 .884-1.431 1.601-3.197 1.6s-3.197-.717-3.197-1.601c-.004-.897 1.395-1.597 3.195-1.601zm-9.592-6.394c1.766 0 3.2 1.4 3.2 3.2s-1.431 3.197-3.197 3.197-3.197-1.432-3.197-3.197 1.428-3.202 3.187-3.2z" fill="#1F4B24"/></svg>
