<svg xmlns="http://www.w3.org/2000/svg" viewBox="-249.5 542.5 500 500"><path fill="#004B03" d="M246.711,740.88c-3.53-28.882-9.881-53.916-19.3-75.954c13.434-12.928,21.797-31.091,21.797-51.207
	c0.005-39.215-31.788-71.058-71.049-71.058c-20.244,0-38.51,8.465-51.456,22.048c-14.873-6.333-31.14-11.346-48.558-14.944
	c-23.328-4.82-49.443-7.273-77.662-7.265c-28.204,0-54.322,2.433-77.627,7.233c-17.444,3.592-33.734,8.601-48.624,14.945
	c-12.938-13.603-31.18-22.022-51.423-22.022c-39.248,0-71.063,31.815-71.063,71.063c0,20.075,8.309,38.198,21.749,51.137
	c-9.383,21.985-15.711,46.969-19.232,75.785c-3.763,30.812-3.763,61.556-3.763,86.261c0,24.202,0,51.583,4.126,76.901
	c4.922,30.336,15.336,54.65,31.843,74.285c9.447,11.265,21.079,21.08,34.52,29.231c13.293,8.028,28.888,14.777,46.398,19.963
	c34.605,10.262,78.13,15.225,133.116,15.217c54.975,0,98.541-5.007,133.184-15.307c17.506-5.205,33.125-11.944,46.423-20.029
	c13.439-8.171,25.037-18.026,34.479-29.293c16.477-19.659,26.879-43.955,31.804-74.274c4.106-25.272,4.106-52.577,4.106-76.668
	c-0.022-24.619-0.013-55.235-3.804-86.046L246.711,740.88z M0.482,1006.789c-212.206,0-214.303-77.782-214.303-179.879
	c0-44.95,0.214-98.527,18.644-144.428c14.579-36.307,40.555-67.808,86.852-86.427c28.113-11.309,63.72-17.868,108.813-17.868
	c45.087,0,80.696,6.58,108.804,17.921c36.777,14.835,60.73,37.81,76.345,64.856c-14.261-6.843-30.236-10.676-47.109-10.676
	c-60.218,0-109.032,48.809-109.032,109.017c0,60.228,48.796,109.022,109.025,109.017c29.691,0,56.604-11.873,76.269-31.122
	c-0.39,96.493-9.308,169.603-214.309,169.591L0.482,1006.789z M142.61,791.381c0,19.624-15.908,35.532-35.533,35.523
	c-19.625,0-35.533-15.907-35.533-35.532c0-19.624,15.908-35.533,35.533-35.533c19.631,0.018,35.556,15.911,35.556,35.547
	L142.61,791.381z M0.482,826.898c19.619,0,35.523,7.965,35.523,17.789s-15.905,17.789-35.523,17.789
	c-19.619,0-35.523-7.965-35.523-17.789S-19.137,826.898,0.482,826.898z M-106.089,755.853c19.62,0,35.523,15.904,35.523,35.523
	c0,19.618-15.904,35.522-35.523,35.522c-19.619,0-35.524-15.904-35.524-35.522C-141.614,771.757-125.708,755.853-106.089,755.853z"
	/></svg>